<svg xmlns="http://www.w3.org/2000/svg" width="32.818" height="38.854" viewBox="0 0 32.818 38.854"><path d="M16.126,31.753c-.117-.059-.234-.527-.293-.645l-3.868-9.787c-.059-.117-.059-.234-.117-.352a.833.833,0,0,1-.117-.352c.176-.117.293-.234.469-.352a.809.809,0,0,1,.234-.176l.234-.176c.293-.293.645-.586.938-.938l.293-.352a10.575,10.575,0,0,0,1.231-2.051,11.934,11.934,0,0,0,1.055-4.747,11.572,11.572,0,0,0-.469-3.751L15.54,7.55c-.234-.586-.41-1.055-.7-1.641a13.828,13.828,0,0,0-1.172-1.817l-.645-.7A15.319,15.319,0,0,0,11.614,2.1l-.41-.293c-.117-.117-.293-.176-.41-.293-.117-.059-.293-.176-.41-.234A8.545,8.545,0,0,0,7.98.342a8.709,8.709,0,0,0-4.747,0l-.7.176a2.857,2.857,0,0,0-.645.234C1.358.928.83,1.162.3,1.4a.99.99,0,0,1-.293.117c.352.645.645,1.289,1,1.934.117.234.938,1.758,1,1.934a4.418,4.418,0,0,0,.762-.352L3.35,4.8c.059,0,.117-.059.234-.059a5.012,5.012,0,0,1,3.458-.176,5.959,5.959,0,0,1,1.641.762c.293.234.645.469.879.7l.234.234.176.234a7.42,7.42,0,0,1,1.758,4.747,10.5,10.5,0,0,1-.117,1.406,7.154,7.154,0,0,1-1.055,2.813c-.117.176-.234.293-.352.469l-.176.176a5.253,5.253,0,0,1-1.055.879,6.2,6.2,0,0,1-2.286.762,2.492,2.492,0,0,1-.645.117l2.637,6.974.527,1.406c.176.469.352.879.527,1.348L10.266,29c.176.469.352.938.527,1.348a3.585,3.585,0,0,0,.293.7l2.461,6.212a6.876,6.876,0,0,0,.293.645,3.537,3.537,0,0,0,.469.469c.117.059.176.117.293.176a3.224,3.224,0,0,0,1.524.293A2.294,2.294,0,0,0,18,37.5c.352-.762.645-1.582.938-2.344.645-1.582,1.231-3.106,1.875-4.688C22.162,27.065,32.242,1.631,32.828-.01h-4.4C24.506,10.48,20.111,20.97,16.067,31.4c-.059.117-.059.176-.117.293Z" transform="translate(-0.01 0.01)" fill="#fff" fill-rule="evenodd"/></svg>